<?xml version="1.0" encoding="UTF-8" standalone="no"?>
<!-- Created with Inkscape (http://www.inkscape.org/) -->

<svg
   version="1.1"
   id="svg2"
   viewBox="0 0 374.47516 175.46555"
   height="175.46555"
   width="374.47516"
   xmlns="http://www.w3.org/2000/svg"
   xmlns:svg="http://www.w3.org/2000/svg"
   xmlns:rdf="http://www.w3.org/1999/02/22-rdf-syntax-ns#"
   xmlns:cc="http://creativecommons.org/ns#"
   xmlns:dc="http://purl.org/dc/elements/1.1/"
   xmlns:osb="http://www.openswatchbook.org/uri/2009/osb">
  <defs
     id="defs4">
    <linearGradient
       id="linearGradient5822"
       osb:paint="solid">
      <stop
         style="stop-color:#000000;stop-opacity:1;"
         offset="0"
         id="stop5824" />
    </linearGradient>
    <linearGradient
       id="linearGradient5814"
       osb:paint="gradient">
      <stop
         style="stop-color:#000000;stop-opacity:1;"
         offset="0"
         id="stop5816" />
      <stop
         style="stop-color:#000000;stop-opacity:0;"
         offset="1"
         id="stop5818" />
    </linearGradient>
  </defs>
  <metadata
     id="metadata7">
    <rdf:RDF>
      <cc:Work
         rdf:about="">
        <dc:format>image/svg+xml</dc:format>
        <dc:type
           rdf:resource="http://purl.org/dc/dcmitype/StillImage" />
      </cc:Work>
    </rdf:RDF>
  </metadata>
  <g
     id="layer1"
     transform="translate(-77.530489,65.092054)">
    <path
       id="path1142"
       style="color:#000000;font-style:normal;font-variant:normal;font-weight:normal;font-stretch:normal;font-size:medium;line-height:normal;font-family:sans-serif;font-variant-ligatures:normal;font-variant-position:normal;font-variant-caps:normal;font-variant-numeric:normal;font-variant-alternates:normal;font-feature-settings:normal;text-indent:0;text-align:start;text-decoration:none;text-decoration-line:none;text-decoration-style:solid;text-decoration-color:#000000;letter-spacing:normal;word-spacing:normal;text-transform:none;writing-mode:lr-tb;direction:ltr;text-orientation:mixed;dominant-baseline:auto;baseline-shift:baseline;text-anchor:start;white-space:normal;shape-padding:0;clip-rule:nonzero;display:inline;overflow:visible;visibility:visible;opacity:1;isolation:auto;mix-blend-mode:normal;color-interpolation:sRGB;color-interpolation-filters:linearRGB;solid-color:#000000;solid-opacity:1;vector-effect:none;fill:#000000;fill-opacity:1;fill-rule:evenodd;stroke:none;stroke-width:1;stroke-linecap:square;stroke-linejoin:miter;stroke-miterlimit:4;stroke-dasharray:none;stroke-dashoffset:0;stroke-opacity:0.953917;color-rendering:auto;image-rendering:auto;shape-rendering:auto;text-rendering:auto;enable-background:accumulate"
       d="m 150.00659,-34.111763 -0.50391,1.255859 C 134.60015,4.4023592 119.69465,41.660337 104.7937,78.919487 h 22.64844 c 6.60683,-16.513086 13.21072,-33.027461 19.8164,-49.541016 h 66.84571 c 6.60568,16.513555 13.20957,33.02793 19.8164,49.541016 h 22.64649 C 241.49858,41.241779 226.42752,3.5648276 211.3562,-34.111763 Z m 83.58594,0 0.97656,2.683594 c 1.87069,5.178729 4.04281,10.244001 6.04883,15.371093 12.66365,31.659246 25.32543,63.317778 37.99023,94.976563 h 105.6211 C 378.87266,65.53323 373.51848,52.145968 368.16284,38.759331 h 15.26367 c 5.35504,13.386616 10.70828,26.773989 16.06446,40.160156 h 22.78711 C 416.9215,65.53323 411.5673,52.145968 406.21167,38.759331 h 11.33008 c -2.82021,-7.006681 -5.64225,-14.012649 -8.4668,-21.017578 h -82.1543 c 2.82021,7.00668 5.64225,14.012648 8.4668,21.017578 h 9.99023 c 2.41667,6.042962 4.83335,12.085943 7.25,18.128906 h -60.18359 l -27.58398,-68.96875 h 82.70312 c -2.9563,-7.344562 -5.91437,-14.688436 -8.875,-22.03125 z m -69.75195,22.1875 h 33.67773 c 2.58984,6.4758981 5.17968,12.9518359 7.76953,19.4277344 h -49.2168 c 2.58984,-6.4758985 5.1797,-12.9518363 7.76954,-19.4277344 z" />
  </g>
</svg>
