<?xml version="1.0" encoding="UTF-8" standalone="no"?>
<!-- Created with Inkscape (http://www.inkscape.org/) -->

<svg
   width="269.72177"
   height="25.161709"
   viewBox="0 0 269.72179 25.161708"
   version="1.1"
   id="svg2002"
   xmlns="http://www.w3.org/2000/svg"
   xmlns:svg="http://www.w3.org/2000/svg"
   xmlns:rdf="http://www.w3.org/1999/02/22-rdf-syntax-ns#"
   xmlns:cc="http://creativecommons.org/ns#"
   xmlns:dc="http://purl.org/dc/elements/1.1/">
  <defs
     id="defs1996">
    <filter
       style="color-interpolation-filters:sRGB"
       id="filter30540"
       x="-0.0025281494"
       y="-0.044004365"
       width="1.0050563"
       height="1.0880087">
      <feGaussianBlur
         stdDeviation="0.2 0.2"
         result="blur"
         id="feGaussianBlur30538" />
    </filter>
  </defs>
  <metadata
     id="metadata1999">
    <rdf:RDF>
      <cc:Work
         rdf:about="">
        <dc:format>image/svg+xml</dc:format>
        <dc:type
           rdf:resource="http://purl.org/dc/dcmitype/StillImage" />
      </cc:Work>
    </rdf:RDF>
  </metadata>
  <g
     id="layer1"
     transform="translate(-95.150087,-27.583176)">
    <g
       aria-label="aghorui (dot) software (at) 
gmail (dot) com"
       id="text4476"
       style="font-size:10.6667px;font-family:'Terminus (TTF)';-inkscape-font-specification:'Terminus (TTF)';letter-spacing:0px;word-spacing:0px;stroke-width:1px">
      <g
         id="g30378"
         style="filter:url(#filter30540)"
         transform="matrix(1.4219314,0,0,1.4219314,-74.904708,-21.024377)">
        <path
           d="m 122.3815,40.863538 c 0.45866,0 0.864,0.213334 1.10933,0.522668 l -0.77867,2.933343 c -0.16,0.597335 -0.8,0.896003 -1.33333,0.896003 -0.81067,0 -1.05601,-0.544002 -1.05601,-1.216004 0,-1.888006 1.28001,-3.13601 2.05868,-3.13601 z m -2.95468,2.880009 c 0,0.960003 0.58667,1.749339 1.67467,1.749339 0.512,0 0.90667,-0.106667 1.40801,-0.362668 0.13866,0.07467 -0.0107,0.362668 0.50133,0.362668 0.32,0 0.59734,-0.04267 0.82134,-0.373334 -0.0853,0.04267 -0.192,0.08533 -0.288,0.08533 -0.13867,0 -0.20267,-0.106667 -0.20267,-0.224001 0,-0.04267 0.0107,-0.08533 0.0213,-0.128 l 1.14134,-4.245347 h -0.8 l -0.13867,0.512002 c -0.21333,-0.288001 -0.736,-0.533335 -1.14134,-0.533335 -1.64267,0 -2.99734,1.696005 -2.99734,3.157343 z"
           style="-inkscape-font-specification:'Accanthis ADF Std No2 Italic'"
           id="path26377" />
        <path
           d="m 128.16284,40.863538 c 0.45867,0 0.87467,0.224001 0.87467,0.672002 0,0.064 -0.0107,0.138667 -0.032,0.224001 l -0.75733,2.826675 c -0.416,0.309335 -0.93867,0.522669 -1.39734,0.522669 -0.62934,0 -0.90667,-0.746669 -0.90667,-1.418671 0,-0.426668 0.448,-2.826676 2.21867,-2.826676 z m -3.09334,2.773342 c 0,0.960003 0.58667,1.749339 1.67467,1.749339 0.40534,0 1.06667,-0.245334 1.42934,-0.533335 l -0.23467,0.874669 c -0.16,0.629336 -0.59733,2.058674 -1.504,2.058674 -0.42667,0 -0.77867,-0.693336 -1.13067,-0.693336 -0.288,0 -0.46934,0.245334 -0.46934,0.458668 0,0.480002 0.99201,0.501335 1.36534,0.501335 0.87467,0 2.29334,-1.386671 2.50668,-2.176007 l 1.23733,-4.650681 c -0.69333,-0.01067 -1.00267,-0.640002 -1.90934,-0.640002 -1.696,0 -2.96534,1.610672 -2.96534,3.050676 z"
           style="-inkscape-font-specification:'Accanthis ADF Std No2 Italic'"
           id="path26379" />
        <path
           d="m 134.7762,44.959551 c -0.096,0.07467 -0.23467,0.170667 -0.34134,0.170667 -0.11733,0 -0.16,-0.106667 -0.16,-0.224 0,-0.07467 0.0213,-0.149334 0.032,-0.213334 l 0.736,-2.773343 c 0.0427,-0.138667 0.0533,-0.277334 0.0533,-0.405334 0,-0.512002 -0.30934,-0.928003 -0.896,-0.928003 -0.72534,0 -1.47201,0.800002 -1.97334,1.333337 l 1.07733,-4.000012 c 0.0427,-0.181334 0.128,-0.362668 0.24534,-0.533335 -0.53334,0 -1.06667,0.533335 -1.57867,0.533335 l 0.384,0.533335 -1.88801,7.040022 0.832,-0.106667 0.89601,-3.360011 c 0.39466,-0.309334 1.19467,-0.906669 1.664,-0.906669 0.30934,0 0.40534,0.224001 0.40534,0.490668 0,0.192001 -0.0427,0.405335 -0.096,0.576002 l -0.72534,2.773342 c -0.0107,0.05333 -0.0213,0.106667 -0.0213,0.160001 0,0.234667 0.192,0.373334 0.45866,0.373334 0.33067,0 0.72534,-0.192001 0.89601,-0.533335 z"
           style="-inkscape-font-specification:'Accanthis ADF Std No2 Italic'"
           id="path26381" />
        <path
           d="m 137.85887,45.215552 c -0.81067,0 -1.05601,-0.554669 -1.05601,-1.237337 0,-1.269338 0.768,-3.114677 1.85601,-3.114677 0.832,0 1.07733,0.512002 1.07733,1.16267 0,0.992004 -0.608,3.189344 -1.87733,3.189344 z m 2.72,-2.880009 c 0,-0.960003 -0.58666,-1.749339 -1.67467,-1.749339 -1.632,0 -2.99734,1.696005 -2.99734,3.157343 0,0.960003 0.58667,1.749339 1.67467,1.749339 1.63201,0 2.99734,-1.696005 2.99734,-3.157343 z"
           style="-inkscape-font-specification:'Accanthis ADF Std No2 Italic'"
           id="path26383" />
        <path
           d="m 145.72021,41.034205 c 0,-0.341334 -0.448,-0.448001 -0.76801,-0.448001 -0.736,0 -1.46133,0.789336 -1.97334,1.333337 l 0.21334,-0.800002 c 0.0533,-0.181334 0.128,-0.362668 0.256,-0.533335 -0.53334,0 -1.07734,0.533335 -1.58934,0.533335 l 0.39467,0.533335 -1.03467,3.840012 0.832,-0.106667 0.896,-3.360011 c 0.39467,-0.309334 1.19467,-0.906669 1.66401,-0.906669 0.48,0 0.27733,0.309334 0.64,0.309334 0.0533,0 0.46934,-0.05333 0.46934,-0.394668 z"
           style="-inkscape-font-specification:'Accanthis ADF Std No2 Italic'"
           id="path26385" />
        <path
           d="m 149.92285,44.959551 c -0.096,0.07467 -0.23466,0.170667 -0.34133,0.170667 -0.11733,0 -0.16,-0.106667 -0.16,-0.224 0,-0.07467 0.0213,-0.149334 0.032,-0.213334 l 1.10934,-4.10668 -0.83201,0.106667 -0.90667,3.36001 c -0.384,0.309335 -1.184,0.90667 -1.65333,0.90667 -0.32,0 -0.40534,-0.224001 -0.40534,-0.490668 0,-0.192001 0.0427,-0.405335 0.096,-0.576002 l 0.736,-2.773342 c 0.0533,-0.181334 0.128,-0.362668 0.25601,-0.533335 -0.52267,0 -1.06667,0.533335 -1.55734,0.533335 h -0.032 l 0.39466,0.533335 -0.672,2.506674 c -0.0427,0.138668 -0.0533,0.277335 -0.0533,0.416002 0,0.512001 0.29867,0.917336 0.896,0.917336 0.72534,0 1.46134,-0.800002 1.97334,-1.333338 -0.0747,0.277335 -0.23467,0.650669 -0.23467,0.928003 0,0.234668 0.10667,0.405335 0.45867,0.405335 0.33067,0 0.72534,-0.192001 0.896,-0.533335 z"
           style="-inkscape-font-specification:'Accanthis ADF Std No2 Italic'"
           id="path26387" />
        <path
           d="m 152.47219,44.959551 c -0.096,0.07467 -0.23467,0.170667 -0.34133,0.170667 -0.11734,0 -0.16,-0.106667 -0.16,-0.224 0,-0.07467 0.0213,-0.149334 0.032,-0.213334 l 0.96,-3.573345 c 0.0533,-0.181334 0.13867,-0.362668 0.256,-0.533335 -0.53333,0 -1.04534,0.533335 -1.58934,0.533335 l 0.39467,0.533335 -0.88534,3.306677 c -0.0107,0.05333 -0.0213,0.106667 -0.0213,0.160001 0,0.234667 0.192,0.373334 0.45867,0.373334 0.33067,0 0.72533,-0.192001 0.896,-0.533335 z m 1.26934,-6.33602 c 0,-0.234667 -0.17067,-0.416001 -0.42667,-0.416001 -0.34133,0 -0.69333,0.330667 -0.69333,0.693335 0,0.224001 0.16,0.384001 0.40533,0.384001 0.288,0 0.71467,-0.277334 0.71467,-0.661335 z"
           style="-inkscape-font-specification:'Accanthis ADF Std No2 Italic'"
           id="path26389" />
        <path
           d="m 160.38686,37.812862 h -0.42667 c -1.87734,2.688008 -2.76268,4.085346 -2.76268,6.197353 0,0.949336 0.18134,1.866672 0.384,2.709342 h 0.42667 c -0.0747,-0.586669 -0.11733,-1.194671 -0.11733,-1.802673 0,-2.453341 0.672,-4.096013 2.49601,-7.104022 z"
           style="-inkscape-font-specification:'Accanthis ADF Std No2 Italic'"
           id="path26391" />
        <path
           d="m 162.49884,40.863538 c 0.45867,0 0.864,0.213334 1.10934,0.522668 l -0.77867,2.933343 c -0.16,0.597335 -0.8,0.896003 -1.33334,0.896003 -0.81067,0 -1.056,-0.544002 -1.056,-1.216004 0,-1.888006 1.28,-3.13601 2.05867,-3.13601 z m -2.95467,2.880009 c 0,0.960003 0.58666,1.749339 1.67467,1.749339 0.512,0 0.90667,-0.106667 1.408,-0.362668 0.13867,0.07467 -0.0107,0.362668 0.50134,0.362668 0.32,0 0.59733,-0.04267 0.82133,-0.373334 -0.0853,0.04267 -0.192,0.08533 -0.288,0.08533 -0.13866,0 -0.20267,-0.106667 -0.20267,-0.224001 0,-0.04267 0.0107,-0.08533 0.0213,-0.128 l 1.86667,-6.933355 c 0.0427,-0.181334 0.128,-0.362668 0.24533,-0.533335 -0.53333,0 -1.04533,0.533335 -1.57867,0.533335 l 0.384,0.533335 -0.71466,2.666675 c -0.21334,-0.288001 -0.73601,-0.533335 -1.14134,-0.533335 -1.64267,0 -2.99734,1.696005 -2.99734,3.157343 z"
           style="-inkscape-font-specification:'Accanthis ADF Std No2 Italic'"
           id="path26393" />
        <path
           d="m 167.09618,45.215552 c -0.81067,0 -1.056,-0.554669 -1.056,-1.237337 0,-1.269338 0.768,-3.114677 1.856,-3.114677 0.83201,0 1.07734,0.512002 1.07734,1.16267 0,0.992004 -0.608,3.189344 -1.87734,3.189344 z m 2.72001,-2.880009 c 0,-0.960003 -0.58667,-1.749339 -1.67467,-1.749339 -1.63201,0 -2.99734,1.696005 -2.99734,3.157343 0,0.960003 0.58666,1.749339 1.67467,1.749339 1.632,0 2.99734,-1.696005 2.99734,-3.157343 z"
           style="-inkscape-font-specification:'Accanthis ADF Std No2 Italic'"
           id="path26395" />
        <path
           d="m 173.16552,44.76755 -0.192,-0.170667 c -0.26667,0.298668 -0.57601,0.618669 -0.94934,0.618669 -0.42667,0 -0.544,-0.266668 -0.544,-0.608002 0,-0.298668 0.096,-0.661336 0.17067,-0.928003 l 0.72533,-2.720009 h 0.68267 l 0.26667,-0.266667 h -0.87467 l 0.30933,-1.173337 c 0.0533,-0.170667 0.11734,-0.384001 0.256,-0.533335 -0.50133,0.07467 -1.07733,1.706672 -1.74934,1.706672 l -0.26666,0.266667 h 0.576 l -0.78934,2.94401 c -0.0533,0.213334 -0.0853,0.405334 -0.0853,0.586668 0,0.597335 0.30933,1.00267 1.04534,1.00267 0.58666,0 0.96,-0.245334 1.41867,-0.725336 z"
           style="-inkscape-font-specification:'Accanthis ADF Std No2 Italic'"
           id="path26397" />
        <path
           d="m 176.06684,40.714204 c 0,-1.013336 -0.17067,-2.03734 -0.30933,-2.901342 h -0.42667 c 0.0427,0.576002 0.0853,1.152003 0.0853,1.738672 0,1.930673 -0.288,3.861345 -2.464,7.168023 h 0.42666 c 2.62401,-3.413345 2.68801,-4.810682 2.68801,-6.005353 z"
           style="-inkscape-font-specification:'Accanthis ADF Std No2 Italic'"
           id="path26399" />
        <path
           d="m 183.29885,43.807547 c 0,-1.19467 -2.06934,-1.056003 -2.06934,-1.962672 0,-0.490669 0.49067,-0.981337 1.14134,-0.981337 0.43733,0 0.71466,0.661335 1.088,0.661335 0.18133,0 0.448,-0.256 0.448,-0.469334 0,-0.426668 -1.00267,-0.469335 -1.29067,-0.469335 -1.69601,0 -2.17601,0.928003 -2.17601,1.536005 0,1.16267 2.08001,1.141337 2.08001,2.026673 0,0.448001 -0.49067,1.077337 -1.46134,1.077337 -0.448,0 -0.75733,-0.693336 -1.16267,-0.693336 -0.224,0 -0.448,0.256001 -0.448,0.469335 0,0.469335 1.024,0.490668 1.376,0.490668 2.13334,0 2.47468,-1.013337 2.47468,-1.685339 z"
           style="-inkscape-font-specification:'Accanthis ADF Std No2 Italic'"
           id="path26401" />
        <path
           d="m 186.23218,45.215552 c -0.81067,0 -1.056,-0.554669 -1.056,-1.237337 0,-1.269338 0.768,-3.114677 1.85601,-3.114677 0.832,0 1.07733,0.512002 1.07733,1.16267 0,0.992004 -0.608,3.189344 -1.87734,3.189344 z m 2.72001,-2.880009 c 0,-0.960003 -0.58667,-1.749339 -1.67467,-1.749339 -1.63201,0 -2.99734,1.696005 -2.99734,3.157343 0,0.960003 0.58667,1.749339 1.67467,1.749339 1.632,0 2.99734,-1.696005 2.99734,-3.157343 z"
           style="-inkscape-font-specification:'Accanthis ADF Std No2 Italic'"
           id="path26403" />
        <path
           d="m 191.60818,40.959538 h 1.78134 l -0.78933,2.94401 c -0.0533,0.213334 -0.0853,0.405334 -0.0853,0.586668 0,0.597335 0.30934,1.00267 1.04534,1.00267 0.58667,0 0.96,-0.245334 1.41867,-0.725336 l -0.192,-0.170667 c -0.26667,0.298668 -0.576,0.618669 -0.94934,0.618669 -0.42666,0 -0.544,-0.266668 -0.544,-0.608002 0,-0.298668 0.096,-0.661336 0.17067,-0.928003 l 0.72533,-2.720009 h 0.68267 l 0.26667,-0.266667 h -0.87467 l 0.30934,-1.173337 c 0.0533,-0.170667 0.11733,-0.384001 0.256,-0.533335 -0.50134,0.07467 -1.07734,1.706672 -1.74934,1.706672 h -1.39734 c 0.288,-1.09867 0.62934,-2.773342 2.19734,-2.773342 0.49067,0 0.24533,0.309334 0.64,0.309334 0.064,0 0.45867,-0.05333 0.45867,-0.416001 0,-0.352001 -0.43733,-0.426668 -0.768,-0.426668 -1.26934,0 -2.99734,2.058673 -3.29601,3.20001 l -0.032,0.106667 h -0.384 l -0.26667,0.266667 h 0.576 l -1.184,4.426681 c -0.17067,0.650669 -0.66134,2.400008 -1.64268,2.400008 -0.42666,0 -0.77866,-0.693336 -1.13067,-0.693336 -0.288,0 -0.46933,0.245334 -0.46933,0.458668 0,0.480002 0.992,0.501335 1.36534,0.501335 1.16267,0 2.41067,-1.664005 2.67734,-2.666675 z"
           style="-inkscape-font-specification:'Accanthis ADF Std No2 Italic'"
           id="path26405" />
        <path
           d="m 203.18155,41.130206 c 0,-0.298668 -0.064,-0.544002 -0.288,-0.544002 -0.224,0 -0.48,0.149334 -0.48,0.416001 0,0.288001 0.26667,0.661336 0.26667,0.981337 0,0.661335 -1.22667,2.058673 -1.57867,2.592008 l -0.89601,-3.989346 -0.832,0.106667 0.43734,1.877339 c -0.41601,0.682669 -0.97067,1.312004 -1.37601,2.00534 l -0.72533,-3.456011 c -0.096,-0.501335 -0.45867,-0.533335 -0.97067,-0.533335 -0.22401,0.096 -0.44801,0.181334 -0.66134,0.213334 l 0.0107,0.192 0.68267,-0.149333 1.01333,4.544014 h 0.50134 c 0.48,-0.810669 1.152,-1.525338 1.62134,-2.325341 l 0.56533,2.325341 h 0.50134 c 0.77866,-1.258671 2.208,-2.560008 2.208,-4.256013 z"
           style="-inkscape-font-specification:'Accanthis ADF Std No2 Italic'"
           id="path26407" />
        <path
           d="m 206.75487,40.863538 c 0.45867,0 0.864,0.213334 1.10934,0.522668 l -0.77867,2.933343 c -0.16,0.597335 -0.8,0.896003 -1.33334,0.896003 -0.81067,0 -1.056,-0.544002 -1.056,-1.216004 0,-1.888006 1.28,-3.13601 2.05867,-3.13601 z m -2.95467,2.880009 c 0,0.960003 0.58666,1.749339 1.67467,1.749339 0.512,0 0.90667,-0.106667 1.408,-0.362668 0.13867,0.07467 -0.0107,0.362668 0.50134,0.362668 0.32,0 0.59733,-0.04267 0.82133,-0.373334 -0.0853,0.04267 -0.192,0.08533 -0.288,0.08533 -0.13867,0 -0.20267,-0.106667 -0.20267,-0.224001 0,-0.04267 0.0107,-0.08533 0.0213,-0.128 l 1.14133,-4.245347 h -0.8 l -0.13866,0.512002 c -0.21334,-0.288001 -0.73601,-0.533335 -1.14134,-0.533335 -1.64267,0 -2.99734,1.696005 -2.99734,3.157343 z"
           style="-inkscape-font-specification:'Accanthis ADF Std No2 Italic'"
           id="path26409" />
        <path
           d="m 213.85889,41.034205 c 0,-0.341334 -0.448,-0.448001 -0.768,-0.448001 -0.736,0 -1.46134,0.789336 -1.97334,1.333337 l 0.21333,-0.800002 c 0.0533,-0.181334 0.128,-0.362668 0.256,-0.533335 -0.53333,0 -1.07733,0.533335 -1.58934,0.533335 l 0.39467,0.533335 -1.03467,3.840012 0.832,-0.106667 0.89601,-3.360011 c 0.39467,-0.309334 1.19467,-0.906669 1.664,-0.906669 0.48,0 0.27734,0.309334 0.64,0.309334 0.0533,0 0.46934,-0.05333 0.46934,-0.394668 z"
           style="-inkscape-font-specification:'Accanthis ADF Std No2 Italic'"
           id="path26411" />
        <path
           d="m 214.46686,42.868878 c 0.0533,-0.160001 0.55467,-2.00534 1.71734,-2.00534 0.45867,0 0.928,0.192001 0.928,0.640002 0,1.088004 -1.89867,1.365338 -2.64534,1.365338 z m 3.52001,-1.290671 c 0,-0.714669 -0.88533,-0.992003 -1.55733,-0.992003 -1.63201,0 -2.99735,1.696005 -2.99735,3.157343 0,0.960003 0.58667,1.749339 1.67467,1.749339 0.60801,0 1.33334,-0.213334 1.86668,-0.682669 l -0.18134,-0.213334 c -0.36266,0.362668 -0.96,0.618669 -1.408,0.618669 -0.77867,0 -1.056,-0.597335 -1.056,-1.280004 0,-0.245334 0.032,-0.501335 0.096,-0.746669 0.608,0 3.56267,-0.160001 3.56267,-1.610672 z"
           style="-inkscape-font-specification:'Accanthis ADF Std No2 Italic'"
           id="path26413" />
        <path
           d="m 225.51753,37.812862 h -0.42667 c -1.87734,2.688008 -2.76267,4.085346 -2.76267,6.197353 0,0.949336 0.18133,1.866672 0.384,2.709342 h 0.42667 c -0.0747,-0.586669 -0.11734,-1.194671 -0.11734,-1.802673 0,-2.453341 0.67201,-4.096013 2.49601,-7.104022 z"
           style="-inkscape-font-specification:'Accanthis ADF Std No2 Italic'"
           id="path26415" />
        <path
           d="m 227.60819,40.863538 c 0.45867,0 0.864,0.213334 1.10934,0.522668 l -0.77867,2.933343 c -0.16,0.597335 -0.80001,0.896003 -1.33334,0.896003 -0.81067,0 -1.056,-0.544002 -1.056,-1.216004 0,-1.888006 1.28,-3.13601 2.05867,-3.13601 z m -2.95468,2.880009 c 0,0.960003 0.58667,1.749339 1.67467,1.749339 0.51201,0 0.90667,-0.106667 1.40801,-0.362668 0.13867,0.07467 -0.0107,0.362668 0.50133,0.362668 0.32,0 0.59734,-0.04267 0.82134,-0.373334 -0.0853,0.04267 -0.192,0.08533 -0.288,0.08533 -0.13867,0 -0.20267,-0.106667 -0.20267,-0.224001 0,-0.04267 0.0107,-0.08533 0.0213,-0.128 l 1.14133,-4.245347 h -0.8 l -0.13867,0.512002 c -0.21333,-0.288001 -0.736,-0.533335 -1.14133,-0.533335 -1.64268,0 -2.99735,1.696005 -2.99735,3.157343 z"
           style="-inkscape-font-specification:'Accanthis ADF Std No2 Italic'"
           id="path26417" />
        <path
           d="m 232.9202,44.76755 -0.192,-0.170667 c -0.26667,0.298668 -0.576,0.618669 -0.94934,0.618669 -0.42666,0 -0.544,-0.266668 -0.544,-0.608002 0,-0.298668 0.096,-0.661336 0.17067,-0.928003 l 0.72534,-2.720009 h 0.68266 l 0.26667,-0.266667 h -0.87467 l 0.30934,-1.173337 c 0.0533,-0.170667 0.11733,-0.384001 0.256,-0.533335 -0.50134,0.07467 -1.07734,1.706672 -1.74934,1.706672 l -0.26667,0.266667 h 0.576 l -0.78933,2.94401 c -0.0533,0.213334 -0.0853,0.405334 -0.0853,0.586668 0,0.597335 0.30934,1.00267 1.04534,1.00267 0.58667,0 0.96,-0.245334 1.41867,-0.725336 z"
           style="-inkscape-font-specification:'Accanthis ADF Std No2 Italic'"
           id="path26419" />
        <path
           d="m 235.82153,40.714204 c 0,-1.013336 -0.17067,-2.03734 -0.30933,-2.901342 h -0.42667 c 0.0427,0.576002 0.0853,1.152003 0.0853,1.738672 0,1.930673 -0.288,3.861345 -2.46401,7.168023 h 0.42667 c 2.62401,-3.413345 2.68801,-4.810682 2.68801,-6.005353 z"
           style="-inkscape-font-specification:'Accanthis ADF Std No2 Italic'"
           id="path26421" />
        <path
           d="m 244.52099,40.622234 c 0.45867,0 0.87467,0.224 0.87467,0.672002 0,0.064 -0.0107,0.138667 -0.032,0.224 l -0.75734,2.826676 c -0.416,0.309334 -0.93867,0.522668 -1.39733,0.522668 -0.62934,0 -0.90667,-0.746669 -0.90667,-1.418671 0,-0.426668 0.448,-2.826675 2.21867,-2.826675 z m -3.09334,2.773342 c 0,0.960003 0.58667,1.749339 1.67467,1.749339 0.40533,0 1.06667,-0.245334 1.42934,-0.533335 l -0.23467,0.874669 c -0.16,0.629335 -0.59734,2.058673 -1.50401,2.058673 -0.42666,0 -0.77866,-0.693335 -1.13067,-0.693335 -0.288,0 -0.46933,0.245334 -0.46933,0.458668 0,0.480001 0.992,0.501335 1.36534,0.501335 0.87467,0 2.29334,-1.386671 2.50667,-2.176007 l 1.23734,-4.650682 c -0.69334,-0.01067 -1.00267,-0.640002 -1.90934,-0.640002 -1.69601,0 -2.96534,1.610672 -2.96534,3.050677 z"
           style="-inkscape-font-specification:'Accanthis ADF Std No2 Italic'"
           id="path26423" />
        <path
           d="m 253.95035,44.718247 c -0.096,0.07467 -0.23466,0.170667 -0.34133,0.170667 -0.11734,0 -0.16,-0.106667 -0.16,-0.224001 0,-0.07467 0.0213,-0.149334 0.032,-0.213334 l 0.74667,-2.773342 c 0.0427,-0.138667 0.0533,-0.277334 0.0533,-0.416001 0,-0.512002 -0.29867,-0.917337 -0.896,-0.917337 -0.704,0 -1.49334,0.800003 -1.98401,1.322671 0.032,-0.128 0.0533,-0.256001 0.0533,-0.384001 0,-0.522668 -0.32,-0.93867 -0.896,-0.93867 -0.72533,0 -1.472,0.800003 -1.97334,1.333338 l 0.21334,-0.800003 c 0.0533,-0.181333 0.128,-0.362667 0.256,-0.533335 -0.53334,0 -1.07734,0.533335 -1.58934,0.533335 l 0.39467,0.533335 -1.03467,3.840013 0.832,-0.106667 0.896,-3.360011 c 0.39467,-0.309334 1.19467,-0.90667 1.66401,-0.90667 0.32,0 0.40533,0.224001 0.40533,0.490669 0,0.192 -0.0427,0.405334 -0.096,0.576001 l -0.88533,3.306678 0.832,-0.106667 0.896,-3.349344 c 0.39467,-0.298668 1.216,-0.917337 1.67467,-0.917337 0.32,0 0.40534,0.224001 0.40534,0.490669 0,0.192 -0.0427,0.405334 -0.096,0.576001 l -0.736,2.773343 c -0.0107,0.05333 -0.0213,0.106667 -0.0213,0.16 0,0.234668 0.192,0.373335 0.45867,0.373335 0.33067,0 0.72534,-0.192001 0.896,-0.533335 z"
           style="-inkscape-font-specification:'Accanthis ADF Std No2 Italic'"
           id="path26425" />
        <path
           d="m 258.01436,40.622234 c 0.45867,0 0.864,0.213334 1.10934,0.522668 l -0.77867,2.933343 c -0.16,0.597335 -0.8,0.896002 -1.33334,0.896002 -0.81067,0 -1.056,-0.544001 -1.056,-1.216003 0,-1.888006 1.28,-3.13601 2.05867,-3.13601 z m -2.95467,2.880009 c 0,0.960003 0.58666,1.749339 1.67467,1.749339 0.512,0 0.90667,-0.106667 1.408,-0.362668 0.13867,0.07467 -0.0107,0.362668 0.50134,0.362668 0.32,0 0.59733,-0.04267 0.82133,-0.373335 -0.0853,0.04267 -0.192,0.08533 -0.288,0.08533 -0.13866,0 -0.20267,-0.106667 -0.20267,-0.224001 0,-0.04267 0.0107,-0.08533 0.0213,-0.128 l 1.14134,-4.245347 h -0.80001 l -0.13866,0.512001 c -0.21334,-0.288 -0.73601,-0.533335 -1.14134,-0.533335 -1.64267,0 -2.99734,1.696006 -2.99734,3.157344 z"
           style="-inkscape-font-specification:'Accanthis ADF Std No2 Italic'"
           id="path26427" />
        <path
           d="m 262.0677,44.718247 c -0.096,0.07467 -0.23466,0.170667 -0.34133,0.170667 -0.11733,0 -0.16,-0.106667 -0.16,-0.224001 0,-0.07467 0.0213,-0.149334 0.032,-0.213334 l 0.96,-3.573345 c 0.0533,-0.181333 0.13867,-0.362667 0.256,-0.533335 -0.53333,0 -1.04533,0.533335 -1.58934,0.533335 l 0.39467,0.533335 -0.88533,3.306678 c -0.0107,0.05333 -0.0213,0.106667 -0.0213,0.16 0,0.234668 0.192,0.373335 0.45867,0.373335 0.33067,0 0.72534,-0.192001 0.896,-0.533335 z m 1.26934,-6.33602 c 0,-0.234668 -0.17067,-0.416002 -0.42667,-0.416002 -0.34133,0 -0.69333,0.330668 -0.69333,0.693336 0,0.224 0.16,0.384001 0.40533,0.384001 0.288,0 0.71467,-0.277334 0.71467,-0.661335 z"
           style="-inkscape-font-specification:'Accanthis ADF Std No2 Italic'"
           id="path26429" />
        <path
           d="m 264.61703,44.718247 c -0.096,0.07467 -0.23467,0.170667 -0.34134,0.170667 -0.11733,0 -0.16,-0.106667 -0.16,-0.224001 0,-0.07467 0.0213,-0.149334 0.032,-0.213334 l 1.82401,-6.773355 c 0.0427,-0.181334 0.13867,-0.362667 0.24533,-0.533335 -0.53333,0 -1.03467,0.512002 -1.57867,0.533335 l 0.384,0.533335 -1.73867,6.506688 c -0.0107,0.05333 -0.0213,0.106667 -0.0213,0.16 0,0.234668 0.192,0.373335 0.45867,0.373335 0.33066,0 0.72533,-0.192001 0.896,-0.533335 z"
           style="-inkscape-font-specification:'Accanthis ADF Std No2 Italic'"
           id="path26431" />
        <path
           d="m 272.53169,37.571557 h -0.42667 c -1.87734,2.688009 -2.76267,4.085347 -2.76267,6.197353 0,0.949337 0.18133,1.866673 0.384,2.709342 h 0.42667 c -0.0747,-0.586668 -0.11734,-1.19467 -0.11734,-1.802672 0,-2.453341 0.67201,-4.096013 2.49601,-7.104023 z"
           style="-inkscape-font-specification:'Accanthis ADF Std No2 Italic'"
           id="path26433" />
        <path
           d="m 274.64368,40.622234 c 0.45867,0 0.864,0.213334 1.10933,0.522668 l -0.77866,2.933343 c -0.16,0.597335 -0.80001,0.896002 -1.33334,0.896002 -0.81067,0 -1.05601,-0.544001 -1.05601,-1.216003 0,-1.888006 1.28001,-3.13601 2.05868,-3.13601 z m -2.95468,2.880009 c 0,0.960003 0.58667,1.749339 1.67467,1.749339 0.51201,0 0.90667,-0.106667 1.40801,-0.362668 0.13867,0.07467 -0.0107,0.362668 0.50133,0.362668 0.32,0 0.59734,-0.04267 0.82134,-0.373335 -0.0853,0.04267 -0.192,0.08533 -0.288,0.08533 -0.13867,0 -0.20267,-0.106667 -0.20267,-0.224001 0,-0.04267 0.0107,-0.08533 0.0213,-0.128 l 1.86668,-6.933356 c 0.0427,-0.181334 0.128,-0.362667 0.24533,-0.533335 -0.53333,0 -1.04534,0.533335 -1.57867,0.533335 l 0.384,0.533335 -0.71467,2.666675 c -0.21333,-0.288 -0.736,-0.533335 -1.14134,-0.533335 -1.64267,0 -2.99734,1.696006 -2.99734,3.157344 z"
           style="-inkscape-font-specification:'Accanthis ADF Std No2 Italic'"
           id="path26435" />
        <path
           d="m 279.24102,44.974247 c -0.81067,0 -1.05601,-0.554668 -1.05601,-1.237337 0,-1.269337 0.76801,-3.114676 1.85601,-3.114676 0.832,0 1.07734,0.512001 1.07734,1.16267 0,0.992003 -0.60801,3.189343 -1.87734,3.189343 z m 2.72001,-2.880009 c 0,-0.960003 -0.58667,-1.749339 -1.67468,-1.749339 -1.632,0 -2.99734,1.696006 -2.99734,3.157344 0,0.960003 0.58667,1.749339 1.67467,1.749339 1.63201,0 2.99735,-1.696006 2.99735,-3.157344 z"
           style="-inkscape-font-specification:'Accanthis ADF Std No2 Italic'"
           id="path26437" />
        <path
           d="m 285.31035,44.526246 -0.192,-0.170667 c -0.26667,0.298667 -0.576,0.618668 -0.94933,0.618668 -0.42667,0 -0.54401,-0.266667 -0.54401,-0.608002 0,-0.298667 0.096,-0.661335 0.17067,-0.928002 l 0.72534,-2.720009 h 0.68267 l 0.26666,-0.266668 h -0.87467 l 0.30934,-1.173337 c 0.0533,-0.170667 0.11733,-0.384001 0.256,-0.533335 -0.50134,0.07467 -1.07734,1.706672 -1.74934,1.706672 l -0.26667,0.266668 h 0.576 l -0.78933,2.944009 c -0.0533,0.213334 -0.0853,0.405335 -0.0853,0.586669 0,0.597335 0.30933,1.00267 1.04533,1.00267 0.58667,0 0.96,-0.245334 1.41867,-0.725336 z"
           style="-inkscape-font-specification:'Accanthis ADF Std No2 Italic'"
           id="path26439" />
        <path
           d="m 288.21168,40.4729 c 0,-1.013337 -0.17067,-2.03734 -0.30934,-2.901343 h -0.42666 c 0.0427,0.576002 0.0853,1.152004 0.0853,1.738673 0,1.930672 -0.288,3.861345 -2.46401,7.168022 h 0.42667 c 2.62401,-3.413344 2.68801,-4.810682 2.68801,-6.005352 z"
           style="-inkscape-font-specification:'Accanthis ADF Std No2 Italic'"
           id="path26441" />
        <path
           d="m 294.84635,40.622234 c 0.448,0 0.768,0.650668 1.17334,0.650668 0.17066,0 0.42666,-0.170667 0.42666,-0.405334 0,-0.437335 -1.04533,-0.522669 -1.35467,-0.522669 -1.632,0 -2.99734,1.696006 -2.99734,3.157344 0,0.960003 0.58667,1.749339 1.67467,1.749339 0.62934,0 1.20534,-0.202668 1.74934,-0.704003 l -0.17067,-0.192 c -0.384,0.341334 -0.84267,0.618668 -1.30133,0.618668 -0.81067,0 -1.05601,-0.565335 -1.05601,-1.237337 0,-1.312004 0.81067,-3.114676 1.85601,-3.114676 z"
           style="-inkscape-font-specification:'Accanthis ADF Std No2 Italic'"
           id="path26443" />
        <path
           d="m 298.47301,44.974247 c -0.81067,0 -1.056,-0.554668 -1.056,-1.237337 0,-1.269337 0.768,-3.114676 1.856,-3.114676 0.83201,0 1.07734,0.512001 1.07734,1.16267 0,0.992003 -0.608,3.189343 -1.87734,3.189343 z m 2.72001,-2.880009 c 0,-0.960003 -0.58667,-1.749339 -1.67467,-1.749339 -1.63201,0 -2.99734,1.696006 -2.99734,3.157344 0,0.960003 0.58666,1.749339 1.67467,1.749339 1.632,0 2.99734,-1.696006 2.99734,-3.157344 z"
           style="-inkscape-font-specification:'Accanthis ADF Std No2 Italic'"
           id="path26445" />
        <path
           d="m 308.95836,44.718247 c -0.096,0.07467 -0.23467,0.170667 -0.34134,0.170667 -0.11733,0 -0.16,-0.106667 -0.16,-0.224001 0,-0.07467 0.0213,-0.149334 0.032,-0.213334 l 0.74667,-2.773342 c 0.0427,-0.138667 0.0533,-0.277334 0.0533,-0.416001 0,-0.512002 -0.29867,-0.917337 -0.89601,-0.917337 -0.704,0 -1.49334,0.800003 -1.984,1.322671 0.032,-0.128 0.0533,-0.256001 0.0533,-0.384001 0,-0.522668 -0.32,-0.93867 -0.896,-0.93867 -0.72534,0 -1.47201,0.800003 -1.97334,1.333338 l 0.21333,-0.800003 c 0.0533,-0.181333 0.128,-0.362667 0.256,-0.533335 -0.53333,0 -1.07733,0.533335 -1.58934,0.533335 l 0.39467,0.533335 -1.03467,3.840013 0.832,-0.106667 0.89601,-3.360011 c 0.39467,-0.309334 1.19467,-0.90667 1.664,-0.90667 0.32,0 0.40534,0.224001 0.40534,0.490669 0,0.192 -0.0427,0.405334 -0.096,0.576001 l -0.88534,3.306678 0.832,-0.106667 0.89601,-3.349344 c 0.39466,-0.298668 1.216,-0.917337 1.67467,-0.917337 0.32,0 0.40533,0.224001 0.40533,0.490669 0,0.192 -0.0427,0.405334 -0.096,0.576001 l -0.736,2.773343 c -0.0107,0.05333 -0.0213,0.106667 -0.0213,0.16 0,0.234668 0.192,0.373335 0.45866,0.373335 0.33067,0 0.72534,-0.192001 0.89601,-0.533335 z"
           style="-inkscape-font-specification:'Accanthis ADF Std No2 Italic'"
           id="path26447" />
      </g>
    </g>
  </g>
</svg>
